<svg id="Layer_1" data-name="Layer 1" xmlns="http://www.w3.org/2000/svg" viewBox="0 0 207.57 69.05"><defs><style>.cls-1{fill:#0f75bb;}</style></defs><path class="cls-1" d="M100.48,124.05c0,2,0,4,0,6,0,1.66.72,2.41,2.44,2.36,2.57-.07,5.14,0,7.71,0,5,.09,8.56,3.45,8.6,8,0,5.16-3.2,8.48-8.53,8.66a60,60,0,0,1-6.57,0c-2.8-.2-3.72,1.08-3.69,3.71.06,4.95,0,9.9-.08,14.86-.18,9.69-6.78,16.59-16.39,16.86a100.36,100.36,0,0,1-12.25-.56c-4-.39-6.62-4-6.48-8.39a7.74,7.74,0,0,1,7-7.74c2.47-.16,5,0,7.43-.1,3.29-.12,4-.87,4-4.13q0-22.44,0-44.87c0-3.39.17-3.37,3.61-3.16s7,.18,10.57.1c2-.05,2.75.73,2.65,2.69s0,3.81,0,5.71Z" transform="translate(-45.9 -115.47)"/><path class="cls-1" d="M63.32,162.57c-.21,4.84-.39,9.69-.65,14.53a8.09,8.09,0,0,1-8,7.38c-4.29-.09-8.08-3.23-8.15-7.3-.15-10-.28-20,0-30,.24-7.37,6.87-13.86,14.28-14.25,6.05-.32,12.14,0,18.21-.11,1.87,0,2.5.74,2.46,2.55-.08,3.81-.08,7.63,0,11.44.06,1.92-.78,2.49-2.56,2.45-3.9-.09-7.81-.08-11.71-.1-3.31,0-4.08.73-4.1,4s0,6.28,0,9.43Z" transform="translate(-45.9 -115.47)"/><path class="cls-1" d="M53.9,115.78c4.53,0,8.17,3.41,8.06,7.52a8,8,0,1,1-16.06,0A7.72,7.72,0,0,1,53.9,115.78Z" transform="translate(-45.9 -115.47)"/><path d="M128.08,131.78h5.31v23.46h-5.31Z" transform="translate(-45.9 -115.47)"/><path d="M138.92,131.78h5.43l6.12,11.67,2.32,5.15h.15c-.25-2.48-.68-5.77-.68-8.53v-8.29h5.05v23.46h-5.43l-6.12-11.7-2.32-5.12h-.15c.25,2.58.68,5.73.68,8.49v8.33h-5.05Z" transform="translate(-45.9 -115.47)"/><path d="M162.86,131.78h14.8v4.45h-9.5v5.44h8.12v4.44h-8.12v9.13h-5.3Z" transform="translate(-45.9 -115.47)"/><path d="M181.72,131.78H187v23.46h-5.3Z" transform="translate(-45.9 -115.47)"/><path d="M192.56,131.78H198l6.12,11.67,2.32,5.15h.15c-.25-2.48-.68-5.77-.68-8.53v-8.29h5v23.46h-5.43l-6.12-11.7-2.32-5.12h-.15c.25,2.58.68,5.73.68,8.49v8.33h-5.05Z" transform="translate(-45.9 -115.47)"/><path d="M216.5,131.78h14.7v4.45h-9.4v4.71h8v4.45h-8v5.4h9.76v4.45H216.5Z" transform="translate(-45.9 -115.47)"/><path d="M240.35,143.17l-6.1-11.39h5.91l2,4.44c.53,1.07,1,2.28,1.71,3.76h.14c.54-1.48,1-2.69,1.5-3.76l1.87-4.44h5.66L247,143.42l6.49,11.82h-5.91l-2.31-4.78c-.59-1.22-1.13-2.43-1.76-3.87h-.14c-.56,1.44-1.09,2.65-1.62,3.87l-2.19,4.78h-5.66Z" transform="translate(-45.9 -115.47)"/><path d="M129.16,163.91h-3.58v-1.86H135v1.86h-3.58v10.57h-2.21Z" transform="translate(-45.9 -115.47)"/><path d="M137,162.05h7.48v1.86h-5.28v3.18h4.47V169h-4.47v3.67h5.47v1.86H137Z" transform="translate(-45.9 -115.47)"/><path d="M146.6,168.31c0-4.07,2.54-6.48,5.69-6.48a4.92,4.92,0,0,1,3.58,1.57l-1.18,1.42a3.24,3.24,0,0,0-2.36-1.08c-2,0-3.47,1.71-3.47,4.5s1.34,4.55,3.42,4.55a3.49,3.49,0,0,0,2.65-1.28l1.18,1.39a5,5,0,0,1-3.91,1.81C149.07,174.71,146.6,172.42,146.6,168.31Z" transform="translate(-45.9 -115.47)"/><path d="M158.2,162.05h2.2v5h5v-5h2.2v12.43h-2.2V169h-5v5.51h-2.2Z" transform="translate(-45.9 -115.47)"/><path d="M170.79,162.05h2.27l3.86,7,1.28,2.65h.08c-.11-1.28-.28-2.86-.28-4.24v-5.4h2.09v12.43h-2.26l-3.86-7-1.29-2.64h-.07c.1,1.32.28,2.81.28,4.2v5.44h-2.1Z" transform="translate(-45.9 -115.47)"/><path d="M182.6,168.22c0-4,2.24-6.39,5.48-6.39s5.48,2.38,5.48,6.39-2.24,6.49-5.48,6.49S182.6,172.24,182.6,168.22Zm8.69,0c0-2.79-1.26-4.48-3.21-4.48s-3.21,1.69-3.21,4.48,1.26,4.57,3.21,4.57S191.29,171,191.29,168.22Z" transform="translate(-45.9 -115.47)"/><path d="M196.06,162.05h2.21v10.57h5.16v1.86h-7.37Z" transform="translate(-45.9 -115.47)"/><path d="M204.36,168.22c0-4,2.24-6.39,5.48-6.39s5.48,2.38,5.48,6.39-2.25,6.49-5.48,6.49S204.36,172.24,204.36,168.22Zm8.69,0c0-2.79-1.26-4.48-3.21-4.48s-3.22,1.69-3.22,4.48,1.26,4.57,3.22,4.57S213.05,171,213.05,168.22Z" transform="translate(-45.9 -115.47)"/><path d="M217.16,168.31c0-4.07,2.58-6.48,5.88-6.48a5.1,5.1,0,0,1,3.76,1.57l-1.18,1.42a3.35,3.35,0,0,0-2.51-1.08c-2.2,0-3.68,1.71-3.68,4.5s1.31,4.55,3.81,4.55a2.79,2.79,0,0,0,1.77-.55v-2.68h-2.34v-1.81H227v5.48a5.63,5.63,0,0,1-4,1.48C219.66,174.71,217.16,172.42,217.16,168.31Z" transform="translate(-45.9 -115.47)"/><path d="M229.75,162.05H232v12.43h-2.2Z" transform="translate(-45.9 -115.47)"/><path d="M235.11,162.05h7.47v1.86h-5.27v3.18h4.47V169h-4.47v3.67h5.46v1.86h-7.66Z" transform="translate(-45.9 -115.47)"/><path d="M244.48,172.89l1.28-1.52a4.87,4.87,0,0,0,3.24,1.42c1.4,0,2.16-.63,2.16-1.6s-.8-1.35-1.93-1.83l-1.69-.74a3.55,3.55,0,0,1-2.52-3.29c0-2,1.75-3.5,4.18-3.5a5.48,5.48,0,0,1,3.83,1.58l-1.14,1.4a4,4,0,0,0-2.69-1.07c-1.18,0-1.95.55-1.95,1.46s.95,1.34,2,1.76l1.67.7a3.44,3.44,0,0,1,2.51,3.35c0,2-1.67,3.7-4.46,3.7A6.43,6.43,0,0,1,244.48,172.89Z" transform="translate(-45.9 -115.47)"/></svg>